<?xml version="1.0" encoding="UTF-8" standalone="no"?><!DOCTYPE svg PUBLIC "-//W3C//DTD SVG 1.1//EN" "http://www.w3.org/Graphics/SVG/1.1/DTD/svg11.dtd"><!-- Generated by graphviz version 2.40.1 (20161225.0304)
 --><!-- Title: binaryTree Pages: 1 --><svg xmlns="http://www.w3.org/2000/svg" xmlns:xlink="http://www.w3.org/1999/xlink" width="490pt" height="282pt" viewBox="0.00 0.00 489.96 281.82">
<g id="graph0" class="graph" transform="scale(1 1) rotate(0) translate(4 277.8153)">
<title>binaryTree</title>
<polygon fill="#ffffff" stroke="transparent" points="-4,4 -4,-277.8153 485.9572,-277.8153 485.9572,4 -4,4"/>
<!-- ctx4 -->
<g id="node1" class="node">
<title>ctx4</title>
<ellipse fill="none" stroke="#ff0000" cx="77.9752" cy="-101.9391" rx="19.9505" ry="19.9505"/>
<text text-anchor="middle" x="77.9752" y="-98.9391" font-family="Times,serif" font-size="10.00" fill="#ff0000">ctx4</text>
</g>
<!-- ctx8 -->
<g id="node2" class="node">
<title>ctx8</title>
<ellipse fill="none" stroke="#ff0000" cx="19.9752" cy="-22.9819" rx="19.9505" ry="19.9505"/>
<text text-anchor="middle" x="19.9752" y="-19.9819" font-family="Times,serif" font-size="10.00" fill="#ff0000">ctx8</text>
</g>
<!-- ctx4&#45;&gt;ctx8 -->
<g id="edge7" class="edge">
<title>ctx4-&gt;ctx8</title>
<path fill="none" stroke="#000000" d="M65.9576,-85.5791C57.8698,-74.5689 47.061,-59.8546 37.9551,-47.4585"/>
<polygon fill="#000000" stroke="#000000" points="40.7184,-45.3082 31.9775,-39.3209 35.0769,-49.4523 40.7184,-45.3082"/>
</g>
<!-- ctx9 -->
<g id="node3" class="node">
<title>ctx9</title>
<ellipse fill="none" stroke="#ff0000" cx="77.9752" cy="-22.9819" rx="19.9505" ry="19.9505"/>
<text text-anchor="middle" x="77.9752" y="-19.9819" font-family="Times,serif" font-size="10.00" fill="#ff0000">ctx9</text>
</g>
<!-- ctx4&#45;&gt;ctx9 -->
<g id="edge8" class="edge">
<title>ctx4-&gt;ctx9</title>
<path fill="none" stroke="#000000" d="M77.9752,-81.6057C77.9752,-72.9741 77.9752,-62.7315 77.9752,-53.2416"/>
<polygon fill="#000000" stroke="#000000" points="81.4753,-52.9731 77.9752,-42.9731 74.4753,-52.9732 81.4753,-52.9731"/>
</g>
<!-- ctx1 -->
<g id="node4" class="node">
<title>ctx1</title>
<ellipse fill="none" stroke="#0000ff" cx="234.9752" cy="-253.84" rx="19.9505" ry="19.9505"/>
<text text-anchor="middle" x="234.9752" y="-250.84" font-family="Times,serif" font-size="10.00" fill="#000000">ctx1</text>
</g>
<!-- ctx2 -->
<g id="node5" class="node">
<title>ctx2</title>
<ellipse fill="none" stroke="#0000ff" cx="170.9752" cy="-177.8896" rx="19.9505" ry="19.9505"/>
<text text-anchor="middle" x="170.9752" y="-174.8896" font-family="Times,serif" font-size="10.00" fill="#000000">ctx2</text>
</g>
<!-- ctx1&#45;&gt;ctx2 -->
<g id="edge1" class="edge">
<title>ctx1-&gt;ctx2</title>
<path fill="none" stroke="#000000" d="M222.0239,-238.4703C213.0021,-227.764 200.8044,-213.2886 190.5946,-201.1723"/>
<polygon fill="#000000" stroke="#000000" points="193.0277,-198.6281 183.9073,-193.2364 187.6747,-203.1388 193.0277,-198.6281"/>
</g>
<!-- ctx3 -->
<g id="node6" class="node">
<title>ctx3</title>
<ellipse fill="none" stroke="#0000ff" cx="298.9752" cy="-177.8896" rx="19.9505" ry="19.9505"/>
<text text-anchor="middle" x="298.9752" y="-174.8896" font-family="Times,serif" font-size="10.00" fill="#000000">ctx3</text>
</g>
<!-- ctx1&#45;&gt;ctx3 -->
<g id="edge2" class="edge">
<title>ctx1-&gt;ctx3</title>
<path fill="none" stroke="#000000" d="M247.9266,-238.4703C256.9484,-227.764 269.1461,-213.2886 279.3559,-201.1723"/>
<polygon fill="#000000" stroke="#000000" points="282.2758,-203.1388 286.0431,-193.2364 276.9228,-198.6281 282.2758,-203.1388"/>
</g>
<!-- ctx2&#45;&gt;ctx4 -->
<g id="edge3" class="edge">
<title>ctx2-&gt;ctx4</title>
<path fill="none" stroke="#000000" d="M155.1991,-165.0056C140.4133,-152.9305 118.1261,-134.7292 101.2892,-120.979"/>
<polygon fill="#000000" stroke="#000000" points="103.4776,-118.2473 93.5184,-114.6328 99.0499,-123.6691 103.4776,-118.2473"/>
</g>
<!-- ctx5 -->
<g id="node7" class="node">
<title>ctx5</title>
<ellipse fill="none" stroke="#0000ff" cx="170.9752" cy="-101.9391" rx="19.9505" ry="19.9505"/>
<text text-anchor="middle" x="170.9752" y="-98.9391" font-family="Times,serif" font-size="10.00" fill="#000000">ctx5</text>
</g>
<!-- ctx2&#45;&gt;ctx5 -->
<g id="edge4" class="edge">
<title>ctx2-&gt;ctx5</title>
<path fill="none" stroke="#000000" d="M170.9752,-157.5362C170.9752,-149.7265 170.9752,-140.6392 170.9752,-132.1024"/>
<polygon fill="#000000" stroke="#000000" points="174.4753,-132.0852 170.9752,-122.0852 167.4753,-132.0853 174.4753,-132.0852"/>
</g>
<!-- ctx6 -->
<g id="node8" class="node">
<title>ctx6</title>
<ellipse fill="none" stroke="#0000ff" cx="298.9752" cy="-101.9391" rx="19.9505" ry="19.9505"/>
<text text-anchor="middle" x="298.9752" y="-98.9391" font-family="Times,serif" font-size="10.00" fill="#000000">ctx6</text>
</g>
<!-- ctx3&#45;&gt;ctx6 -->
<g id="edge5" class="edge">
<title>ctx3-&gt;ctx6</title>
<path fill="none" stroke="#000000" d="M298.9752,-157.5362C298.9752,-149.7265 298.9752,-140.6392 298.9752,-132.1024"/>
<polygon fill="#000000" stroke="#000000" points="302.4753,-132.0852 298.9752,-122.0852 295.4753,-132.0853 302.4753,-132.0852"/>
</g>
<!-- ctx7 -->
<g id="node9" class="node">
<title>ctx7</title>
<ellipse fill="none" stroke="#0000ff" cx="394.9752" cy="-101.9391" rx="19.9505" ry="19.9505"/>
<text text-anchor="middle" x="394.9752" y="-98.9391" font-family="Times,serif" font-size="10.00" fill="#000000">ctx7</text>
</g>
<!-- ctx3&#45;&gt;ctx7 -->
<g id="edge6" class="edge">
<title>ctx3-&gt;ctx7</title>
<path fill="none" stroke="#000000" d="M314.8277,-165.3479C330.1136,-153.2544 353.4496,-134.7921 371.0057,-120.9026"/>
<polygon fill="#000000" stroke="#000000" points="373.4284,-123.4488 379.0992,-114.4994 369.0852,-117.9591 373.4284,-123.4488"/>
</g>
<!-- ctx10 -->
<g id="node10" class="node">
<title>ctx10</title>
<ellipse fill="none" stroke="#0000ff" cx="138.9752" cy="-22.9819" rx="22.9639" ry="22.9639"/>
<text text-anchor="middle" x="138.9752" y="-19.9819" font-family="Times,serif" font-size="10.00" fill="#000000">ctx10</text>
</g>
<!-- ctx5&#45;&gt;ctx10 -->
<g id="edge9" class="edge">
<title>ctx5-&gt;ctx10</title>
<path fill="none" stroke="#000000" d="M163.3917,-83.2273C159.8431,-74.4716 155.5224,-63.8106 151.5077,-53.9047"/>
<polygon fill="#000000" stroke="#000000" points="154.6348,-52.302 147.6349,-44.3489 148.1473,-54.9313 154.6348,-52.302"/>
</g>
<!-- ctx11 -->
<g id="node11" class="node">
<title>ctx11</title>
<ellipse fill="none" stroke="#0000ff" cx="202.9752" cy="-22.9819" rx="22.9639" ry="22.9639"/>
<text text-anchor="middle" x="202.9752" y="-19.9819" font-family="Times,serif" font-size="10.00" fill="#000000">ctx11</text>
</g>
<!-- ctx5&#45;&gt;ctx11 -->
<g id="edge10" class="edge">
<title>ctx5-&gt;ctx11</title>
<path fill="none" stroke="#000000" d="M178.5588,-83.2273C182.1074,-74.4716 186.4281,-63.8106 190.4428,-53.9047"/>
<polygon fill="#000000" stroke="#000000" points="193.8032,-54.9313 194.3156,-44.3489 187.3157,-52.302 193.8032,-54.9313"/>
</g>
<!-- ctx12 -->
<g id="node12" class="node">
<title>ctx12</title>
<ellipse fill="none" stroke="#0000ff" cx="266.9752" cy="-22.9819" rx="22.9639" ry="22.9639"/>
<text text-anchor="middle" x="266.9752" y="-19.9819" font-family="Times,serif" font-size="10.00" fill="#000000">ctx12</text>
</g>
<!-- ctx6&#45;&gt;ctx12 -->
<g id="edge11" class="edge">
<title>ctx6-&gt;ctx12</title>
<path fill="none" stroke="#000000" d="M291.3917,-83.2273C287.8431,-74.4716 283.5224,-63.8106 279.5077,-53.9047"/>
<polygon fill="#000000" stroke="#000000" points="282.6348,-52.302 275.6349,-44.3489 276.1473,-54.9313 282.6348,-52.302"/>
</g>
<!-- ctx13 -->
<g id="node13" class="node">
<title>ctx13</title>
<ellipse fill="none" stroke="#0000ff" cx="330.9752" cy="-22.9819" rx="22.9639" ry="22.9639"/>
<text text-anchor="middle" x="330.9752" y="-19.9819" font-family="Times,serif" font-size="10.00" fill="#000000">ctx13</text>
</g>
<!-- ctx6&#45;&gt;ctx13 -->
<g id="edge12" class="edge">
<title>ctx6-&gt;ctx13</title>
<path fill="none" stroke="#000000" d="M306.5588,-83.2273C310.1074,-74.4716 314.4281,-63.8106 318.4428,-53.9047"/>
<polygon fill="#000000" stroke="#000000" points="321.8032,-54.9313 322.3156,-44.3489 315.3157,-52.302 321.8032,-54.9313"/>
</g>
<!-- ctx14 -->
<g id="node14" class="node">
<title>ctx14</title>
<ellipse fill="none" stroke="#0000ff" cx="394.9752" cy="-22.9819" rx="22.9639" ry="22.9639"/>
<text text-anchor="middle" x="394.9752" y="-19.9819" font-family="Times,serif" font-size="10.00" fill="#000000">ctx14</text>
</g>
<!-- ctx7&#45;&gt;ctx14 -->
<g id="edge13" class="edge">
<title>ctx7-&gt;ctx14</title>
<path fill="none" stroke="#000000" d="M394.9752,-81.6057C394.9752,-73.8744 394.9752,-64.8506 394.9752,-56.2329"/>
<polygon fill="#000000" stroke="#000000" points="398.4753,-56.0368 394.9752,-46.0368 391.4753,-56.0369 398.4753,-56.0368"/>
</g>
<!-- ctx15 -->
<g id="node15" class="node">
<title>ctx15</title>
<ellipse fill="none" stroke="#0000ff" cx="458.9752" cy="-22.9819" rx="22.9639" ry="22.9639"/>
<text text-anchor="middle" x="458.9752" y="-19.9819" font-family="Times,serif" font-size="10.00" fill="#000000">ctx15</text>
</g>
<!-- ctx7&#45;&gt;ctx15 -->
<g id="edge14" class="edge">
<title>ctx7-&gt;ctx15</title>
<path fill="none" stroke="#000000" d="M407.6196,-86.3397C416.2857,-75.6483 427.9854,-61.2143 438.0289,-48.8235"/>
<polygon fill="#000000" stroke="#000000" points="440.7633,-51.0084 444.3412,-41.036 435.3254,-46.6006 440.7633,-51.0084"/>
</g>
</g>
</svg>