<?xml version="1.0" encoding="UTF-8"?><svg xmlns="http://www.w3.org/2000/svg" xmlns:xlink="http://www.w3.org/1999/xlink" fill-opacity="1" color-rendering="auto" color-interpolation="auto" text-rendering="auto" stroke="black" stroke-linecap="square" width="759" stroke-miterlimit="10" shape-rendering="auto" stroke-opacity="1" fill="black" stroke-dasharray="none" font-weight="normal" stroke-width="1" height="427" font-family="'Dialog'" font-style="normal" stroke-linejoin="miter" font-size="12px" stroke-dashoffset="0" image-rendering="auto">
  <!--Generated by ySVG 2.5-->
  <defs id="genericDefs"/>
  <g>
    <defs id="defs1">
      <clipPath clipPathUnits="userSpaceOnUse" id="clipPath1">
        <path d="M0 0 L759 0 L759 427 L0 427 L0 0 Z"/>
      </clipPath>
      <clipPath clipPathUnits="userSpaceOnUse" id="clipPath2">
        <path d="M165 5 L924 5 L924 432 L165 432 L165 5 Z"/>
      </clipPath>
    </defs>
    <g fill="white" text-rendering="geometricPrecision" shape-rendering="geometricPrecision" transform="translate(-165,-5)" stroke="white">
      <rect x="165" width="759" height="427" y="5" clip-path="url(#clipPath2)" stroke="none"/>
    </g>
    <g text-rendering="geometricPrecision" stroke-miterlimit="1.45" shape-rendering="geometricPrecision" transform="matrix(1,0,0,1,-165,-5)" stroke-linecap="butt">
      <circle fill="none" r="24.5" clip-path="url(#clipPath2)" cx="468" cy="45.25"/>
      <text x="443.918" font-size="16px" y="50.7891" clip-path="url(#clipPath2)" font-family="'Menlo'" stroke="none" xml:space="preserve">start</text>
      <rect fill="none" x="390.5" width="155" height="30" y="127.1875" clip-path="url(#clipPath2)"/>
    </g>
    <g stroke-linecap="butt" font-size="16px" transform="matrix(1,0,0,1,-165,-5)" fill="red" text-rendering="geometricPrecision" font-family="'Menlo'" shape-rendering="geometricPrecision" stroke="red" stroke-miterlimit="1.45">
      <text x="403.8359" xml:space="preserve" y="147.7266" clip-path="url(#clipPath2)" stroke="none">遍历 pollorder</text>
    </g>
    <g text-rendering="geometricPrecision" stroke-miterlimit="1.45" shape-rendering="geometricPrecision" transform="matrix(1,0,0,1,-165,-5)" stroke-linecap="butt">
      <path fill="none" d="M376.5 208.25 L468 181 L559.5 208.25 L468 235.5 Z" fill-rule="evenodd" clip-path="url(#clipPath2)"/>
      <text x="399.0195" font-size="16px" y="213.7891" clip-path="url(#clipPath2)" font-family="'Menlo'" stroke="none" xml:space="preserve">存在 ready chan</text>
      <rect fill="none" x="608" width="119" height="30" y="193.25" clip-path="url(#clipPath2)"/>
      <text x="611.418" font-size="16px" y="213.7891" clip-path="url(#clipPath2)" font-family="'Menlo'" stroke="none" xml:space="preserve">执行对应 case</text>
      <circle fill="none" r="24.5" clip-path="url(#clipPath2)" cx="830.625" cy="283.75"/>
      <text x="816.1758" font-size="16px" y="289.2891" clip-path="url(#clipPath2)" font-family="'Menlo'" stroke="none" xml:space="preserve">end</text>
      <path fill="none" d="M376.5 281 L468 253.75 L559.5 281 L468 308.25 Z" clip-path="url(#clipPath2)" fill-rule="evenodd"/>
      <text x="413.4688" font-size="16px" y="286.5391" clip-path="url(#clipPath2)" font-family="'Menlo'" stroke="none" xml:space="preserve">存在 default</text>
      <rect fill="none" x="591.3125" width="152.375" height="30" y="266" clip-path="url(#clipPath2)"/>
      <text x="596.9688" font-size="16px" y="286.5391" clip-path="url(#clipPath2)" font-family="'Menlo'" stroke="none" xml:space="preserve">执行对应 default</text>
      <rect fill="none" x="390.5" width="155" height="30" y="386.625" clip-path="url(#clipPath2)"/>
      <text x="395.8359" font-size="16px" y="407.1641" clip-path="url(#clipPath2)" font-family="'Menlo'" stroke="none" xml:space="preserve">goroutine 被唤醒</text>
      <rect fill="none" x="380" width="176" height="30" y="332.4375" clip-path="url(#clipPath2)"/>
      <text x="387.8359" font-size="16px" y="352.9766" clip-path="url(#clipPath2)" font-family="'Menlo'" stroke="none" xml:space="preserve">阻塞当前 goroutine</text>
      <rect fill="none" x="568.125" width="155" height="30" y="386.625" clip-path="url(#clipPath2)"/>
    </g>
    <g stroke-linecap="butt" font-size="16px" transform="matrix(1,0,0,1,-165,-5)" fill="red" text-rendering="geometricPrecision" font-family="'Menlo'" shape-rendering="geometricPrecision" stroke="red" stroke-miterlimit="1.45">
      <text x="581.4609" xml:space="preserve" y="407.1641" clip-path="url(#clipPath2)" stroke="none">遍历 lockorder</text>
    </g>
    <g text-rendering="geometricPrecision" stroke-miterlimit="1.45" shape-rendering="geometricPrecision" transform="matrix(1,0,0,1,-165,-5)" stroke-linecap="butt">
      <rect fill="none" x="753.125" width="155" height="30" y="386.625" clip-path="url(#clipPath2)"/>
      <text x="758.543" font-size="16px" y="407.1641" clip-path="url(#clipPath2)" font-family="'Menlo'" stroke="none" xml:space="preserve">执行被唤醒的 case</text>
      <circle fill="none" r="24.5" clip-path="url(#clipPath2)" cx="257.75" cy="45.25"/>
      <text x="233.668" font-size="16px" y="50.7891" clip-path="url(#clipPath2)" font-family="'Menlo'" stroke="none" xml:space="preserve">start</text>
      <rect fill="none" x="180.25" width="155" height="30" y="158" clip-path="url(#clipPath2)"/>
      <text x="190.3203" font-size="16px" y="178.5391" clip-path="url(#clipPath2)" font-family="'Menlo'" stroke="none" xml:space="preserve">recv/send chan</text>
      <rect fill="none" x="180.25" width="155" height="30" y="332.4375" clip-path="url(#clipPath2)"/>
      <text x="217.668" font-size="16px" y="352.9766" clip-path="url(#clipPath2)" font-family="'Menlo'" stroke="none" xml:space="preserve">chan 队列</text>
      <rect x="180.25" y="87.375" clip-path="url(#clipPath2)" fill="none" width="569" height="16" stroke-width="2"/>
      <rect fill="none" x="180.25" width="155" height="30" y="266" clip-path="url(#clipPath2)"/>
      <text x="241.75" font-size="16px" y="286.5391" clip-path="url(#clipPath2)" font-family="'Menlo'" stroke="none" xml:space="preserve">唤醒</text>
      <path fill="none" d="M468 157.1875 L468 172.9734" clip-path="url(#clipPath2)"/>
      <path d="M468 180.9734 L473 168.9734 L468 171.9734 L463 168.9734 Z" clip-path="url(#clipPath2)" stroke="none"/>
      <path fill="none" d="M559.5187 208.25 L600 208.25" clip-path="url(#clipPath2)"/>
      <path d="M608 208.25 L596 203.25 L599 208.25 L596 213.25 Z" clip-path="url(#clipPath2)" stroke="none"/>
      <text x="578.7656" font-size="16px" y="244.2969" clip-path="url(#clipPath2)" font-family="sans-serif" stroke="none" xml:space="preserve">Y</text>
      <path fill="none" d="M727 208.25 L830.625 208.25 L830.625 251.25" clip-path="url(#clipPath2)"/>
      <path d="M830.625 259.25 L835.625 247.25 L830.625 250.25 L825.625 247.25 Z" clip-path="url(#clipPath2)" stroke="none"/>
      <path fill="none" d="M468 235.4957 L468 245.7596" clip-path="url(#clipPath2)"/>
      <path d="M468 253.7596 L473 241.7596 L468 244.7596 L463 241.7596 Z" clip-path="url(#clipPath2)" stroke="none"/>
      <text x="432.0898" font-size="16px" y="251.1719" clip-path="url(#clipPath2)" font-family="sans-serif" stroke="none" xml:space="preserve">N</text>
      <path fill="none" d="M559.5187 281 L583.3125 281" clip-path="url(#clipPath2)"/>
      <path d="M591.3125 281 L579.3125 276 L582.3125 281 L579.3125 286 Z" clip-path="url(#clipPath2)" stroke="none"/>
      <text x="570.4219" font-size="16px" y="317.0469" clip-path="url(#clipPath2)" font-family="sans-serif" stroke="none" xml:space="preserve">Y</text>
      <path fill="none" d="M743.6875 282.2844 L798.1296 283.2022" clip-path="url(#clipPath2)"/>
      <path d="M806.1285 283.337 L794.2145 278.1355 L797.1298 283.1853 L794.0459 288.134 Z" clip-path="url(#clipPath2)" stroke="none"/>
      <path fill="none" d="M468 308.2822 L468 324.4375" clip-path="url(#clipPath2)"/>
      <path d="M468 332.4375 L473 320.4375 L468 323.4375 L463 320.4375 Z" clip-path="url(#clipPath2)" stroke="none"/>
      <text x="432.0898" font-size="16px" y="326.8906" clip-path="url(#clipPath2)" font-family="sans-serif" stroke="none" xml:space="preserve">N</text>
      <path fill="none" d="M545.5 401.625 L560.125 401.625" clip-path="url(#clipPath2)"/>
      <path d="M568.125 401.625 L556.125 396.625 L559.125 401.625 L556.125 406.625 Z" clip-path="url(#clipPath2)" stroke="none"/>
      <path fill="none" d="M723.125 401.625 L745.125 401.625" clip-path="url(#clipPath2)"/>
      <path d="M753.125 401.625 L741.125 396.625 L744.125 401.625 L741.125 406.625 Z" clip-path="url(#clipPath2)" stroke="none"/>
      <path fill="none" d="M830.625 386.625 L830.625 316.25" clip-path="url(#clipPath2)"/>
      <path d="M830.625 308.25 L825.625 320.25 L830.625 317.25 L835.625 320.25 Z" clip-path="url(#clipPath2)" stroke="none"/>
      <path fill="none" d="M380 347.4375 L343.25 347.4375" clip-path="url(#clipPath2)"/>
      <path d="M335.25 347.4375 L347.25 352.4375 L344.25 347.4375 L347.25 342.4375 Z" clip-path="url(#clipPath2)" stroke="none"/>
      <text x="323.4102" font-size="16px" y="322.9766" clip-path="url(#clipPath2)" font-family="'Menlo'" stroke="none" xml:space="preserve">waiting</text>
      <path fill="none" d="M257.75 362.4375 L257.75 401.625 L382.5 401.625" clip-path="url(#clipPath2)"/>
      <path d="M390.5 401.625 L378.5 396.625 L381.5 401.625 L378.5 406.625 Z" clip-path="url(#clipPath2)" stroke="none"/>
      <text x="203.668" font-size="16px" y="395.7266" clip-path="url(#clipPath2)" font-family="'Menlo'" stroke="none" xml:space="preserve">ready</text>
      <path fill="none" d="M468 69.75 L468 79.3516" clip-path="url(#clipPath2)"/>
      <path d="M468 87.3516 L473 75.3516 L468 78.3516 L463 75.3516 Z" clip-path="url(#clipPath2)" stroke="none"/>
      <path fill="none" d="M257.75 69.75 L257.75 79.3516" clip-path="url(#clipPath2)"/>
      <path d="M257.75 87.3516 L262.75 75.3516 L257.75 78.3516 L252.75 75.3516 Z" clip-path="url(#clipPath2)" stroke="none"/>
      <path fill="none" d="M257.75 103.3828 L257.75 150" clip-path="url(#clipPath2)"/>
      <path d="M257.75 158 L262.75 146 L257.75 149 L252.75 146 Z" clip-path="url(#clipPath2)" stroke="none"/>
      <path fill="none" d="M468 103.3828 L468 119.1875" clip-path="url(#clipPath2)"/>
      <path d="M468 127.1875 L473 115.1875 L468 118.1875 L463 115.1875 Z" clip-path="url(#clipPath2)" stroke="none"/>
      <path fill="none" d="M257.75 188 L257.75 258" clip-path="url(#clipPath2)"/>
      <path d="M257.75 266 L262.75 254 L257.75 257 L252.75 254 Z" clip-path="url(#clipPath2)" stroke="none"/>
      <path fill="none" d="M257.75 296 L257.75 324.4375" clip-path="url(#clipPath2)"/>
      <path d="M257.75 332.4375 L262.75 320.4375 L257.75 323.4375 L252.75 320.4375 Z" clip-path="url(#clipPath2)" stroke="none"/>
    </g>
  </g>
</svg>
